<?xml version="1.0" standalone="no"?>
<!DOCTYPE svg PUBLIC "-//W3C//DTD SVG 20010904//EN"
 "http://www.w3.org/TR/2001/REC-SVG-20010904/DTD/svg10.dtd">
<svg version="1.0" xmlns="http://www.w3.org/2000/svg"
 width="1280.000000pt" height="667.000000pt" viewBox="0 0 1280.000000 667.000000"
 preserveAspectRatio="xMidYMid meet">
<metadata>
Created by potrace 1.15, written by Peter Selinger 2001-2017
</metadata>
<g transform="translate(0.000000,667.000000) scale(0.100000,-0.100000)"
fill="#ff5722" stroke="none">
<path d="M2090 6659 c-247 -15 -435 -50 -545 -99 -118 -53 -161 -113 -172
-240 -6 -66 -5 -70 24 -98 66 -66 232 -87 648 -80 l292 4 272 -674 c149 -371
270 -676 268 -678 -1 -2 -333 -7 -737 -11 l-735 -8 -48 -23 c-93 -47 -115
-121 -124 -423 l-6 -207 -176 -4 c-147 -4 -186 -9 -235 -26 -108 -40 -197
-111 -268 -214 l-39 -58 -54 0 c-30 0 -55 3 -55 6 0 4 16 84 35 178 138 683
203 1232 192 1633 -8 296 -40 428 -126 515 -60 60 -116 72 -184 39 -114 -55
-167 -245 -167 -593 0 -400 81 -1027 214 -1666 l23 -112 -21 -5 c-136 -27
-181 -40 -231 -64 -70 -32 -135 -99 -135 -137 0 -88 116 -166 301 -202 64 -12
88 -21 84 -30 -10 -27 -96 -486 -130 -692 -80 -495 -109 -821 -102 -1130 6
-232 20 -324 63 -420 43 -95 90 -130 172 -130 120 0 194 117 229 364 19 135
13 530 -11 756 -35 320 -121 855 -185 1150 -12 52 -21 99 -21 105 0 6 23 9 60
7 58 -4 61 -5 79 -40 49 -96 174 -197 288 -232 54 -17 93 -20 234 -20 l169 0
0 -387 c1 -570 14 -693 86 -772 84 -93 166 -104 761 -98 449 4 464 5 768 40
323 38 571 71 860 112 94 14 177 25 186 25 12 0 45 -69 122 -262 58 -145 113
-280 121 -300 l16 -36 -73 5 c-40 3 -119 0 -175 -6 -158 -19 -256 -58 -330
-132 -83 -84 -112 -181 -119 -399 -6 -179 3 -228 51 -276 43 -43 99 -58 225
-59 l104 -1 18 -74 c49 -192 169 -338 345 -422 298 -140 666 -12 813 285 23
47 48 113 54 147 11 57 13 60 37 56 93 -19 340 -39 475 -39 134 -1 169 2 214
19 30 10 57 25 59 32 12 36 -240 219 -533 387 -271 156 -628 322 -846 395
l-66 22 -138 344 c-76 190 -136 346 -134 349 2 2 177 33 389 69 1117 189 2174
414 3395 721 2036 513 3107 842 3695 1137 96 48 213 113 260 144 l85 56 312
-7 c303 -7 523 -1 523 15 0 13 -104 38 -380 92 -146 28 -266 53 -268 54 -2 1
22 35 52 75 137 181 196 397 196 715 0 146 -19 243 -66 336 -119 236 -342 404
-633 479 -100 26 -295 36 -386 20 -265 -46 -518 -227 -699 -499 -117 -175
-188 -355 -228 -571 l-22 -123 -141 6 c-77 3 -849 9 -1716 12 l-1575 7 -22 38
c-84 145 -200 186 -319 113 -105 -65 -139 -174 -131 -426 l5 -155 -291 -6
c-407 -10 -590 -9 -621 3 l-25 10 25 50 c14 27 31 50 39 50 22 0 66 40 66 59
0 56 -78 92 -113 53 -19 -21 -22 -63 -6 -79 8 -8 3 -24 -17 -60 -15 -26 -29
-50 -31 -52 -2 -3 -20 11 -39 30 -58 54 -74 102 -81 237 l-6 117 63 75 c35 41
75 99 88 130 33 72 41 181 18 269 -22 86 -89 226 -112 235 -38 15 -212 19
-295 7 -208 -30 -380 -108 -541 -245 -67 -56 -68 -57 -78 -34 -6 13 -93 229
-194 481 l-184 459 172 -7 c94 -3 272 -11 396 -16 623 -26 1311 -21 1343 11
42 41 -1040 254 -1953 384 -903 129 -1466 167 -1990 135z m1798 -503 c1 -2
110 -270 241 -596 l239 -593 -15 -41 c-8 -23 -15 -65 -16 -94 l-2 -53 -540 3
c-297 1 -572 4 -611 6 l-71 4 -272 676 c-149 372 -271 680 -271 684 0 11 416
16 900 11 228 -3 416 -6 418 -7z"/>
</g>
</svg>
